<svg xmlns="http://www.w3.org/2000/svg" viewBox="0 0 1200 630" width="1200" height="630">
  <defs>
    <linearGradient id="bgGrad" x1="0" y1="0" x2="1" y2="1">
      <stop offset="0%" stop-color="#1e2030" />
      <stop offset="100%" stop-color="#222436" />
    </linearGradient>
    <linearGradient id="shieldGrad" x1="0" y1="0" x2="0" y2="1">
      <stop offset="0%" stop-color="#82aaff" />
      <stop offset="100%" stop-color="#c099ff" />
    </linearGradient>
    <radialGradient id="glow" cx="0.5" cy="0.5" r="0.5">
      <stop offset="0%" stop-color="#82aaff" stop-opacity="0.18" />
      <stop offset="100%" stop-color="#82aaff" stop-opacity="0" />
    </radialGradient>
  </defs>

  <rect width="1200" height="630" fill="url(#bgGrad)" />

  <g opacity="0.08" stroke="#82aaff" stroke-width="1">
    <path d="M0 120 H1200" />
    <path d="M0 260 H1200" />
    <path d="M0 400 H1200" />
    <path d="M0 540 H1200" />
    <path d="M200 0 V630" />
    <path d="M500 0 V630" />
    <path d="M800 0 V630" />
    <path d="M1100 0 V630" />
  </g>

  <circle cx="300" cy="315" r="280" fill="url(#glow)" />

  <g transform="translate(140, 175) scale(5.9)">
    <path d="M24 3 L42 10 V24 C42 34 34 42 24 45 C14 42 6 34 6 24 V10 Z"
          fill="none" stroke="url(#shieldGrad)" stroke-width="2.5" stroke-linejoin="round" />
    <circle cx="17" cy="22" r="2.2" fill="#c3e88d" />
    <circle cx="24" cy="20" r="2.2" fill="#c3e88d" />
    <circle cx="31" cy="22" r="2.2" fill="#c3e88d" />
    <path d="M14 30 Q24 38 34 30" fill="none" stroke="#82aaff" stroke-width="2" stroke-linecap="round" />
  </g>

  <text x="580" y="280" font-family="Inter, 'Helvetica Neue', Arial, sans-serif"
        font-size="92" font-weight="700" fill="#c0caf5">Cerberix</text>
  <text x="580" y="360" font-family="Inter, 'Helvetica Neue', Arial, sans-serif"
        font-size="42" font-weight="500" fill="#82aaff">Linux</text>

  <text x="580" y="440" font-family="Inter, 'Helvetica Neue', Arial, sans-serif"
        font-size="26" font-weight="400" fill="#9aa5ce">Hardened Arch, ready the</text>
  <text x="580" y="478" font-family="Inter, 'Helvetica Neue', Arial, sans-serif"
        font-size="26" font-weight="400" fill="#9aa5ce">moment it boots.</text>

  <text x="580" y="555" font-family="'JetBrains Mono', 'Courier New', monospace"
        font-size="20" font-weight="500" fill="#565f89">cerberix.org</text>
</svg>
